PathFileType	4	(X/Y/Z)	C:/Users/opensim2020/Desktop/walking_exp_matlab/subject02_walking09_straight_03.trc																																																																																																																												
DataRate	CameraRate	NumFrames	NumMarkers	Units	OrigDataRate	OrigDataStartFrame	OrigNumFrames																																																																																																																								
100	100	6	42	mm	100	2210	262																																																																																																																								
Frame#	Time	LFHD			RFHD			LBHD			RBHD			C7			T10			CLAV			STRN			RBAK			LSHO			LUPA			LELB			LFRM			LWRA			LWRB			LFIN			RSHO			RUPA			RELB			RFRM			RWRA			RWRB			RFIN			LASI			RASI			LPSI			RPSI			LTHI			LKNE			LTIB			LANK			LHEE			LTOE			RTHI			RKNE			RTIB			RANK			RHEE			RTOE			*39			*40			*41		
		X1	Y1	Z1	X2	Y2	Z2	X3	Y3	Z3	X4	Y4	Z4	X5	Y5	Z5	X6	Y6	Z6	X7	Y7	Z7	X8	Y8	Z8	X9	Y9	Z9	X10	Y10	Z10	X11	Y11	Z11	X12	Y12	Z12	X13	Y13	Z13	X14	Y14	Z14	X15	Y15	Z15	X16	Y16	Z16	X17	Y17	Z17	X18	Y18	Z18	X19	Y19	Z19	X20	Y20	Z20	X21	Y21	Z21	X22	Y22	Z22	X23	Y23	Z23	X24	Y24	Z24	X25	Y25	Z25	X26	Y26	Z26	X27	Y27	Z27	X28	Y28	Z28	X29	Y29	Z29	X30	Y30	Z30	X31	Y31	Z31	X32	Y32	Z32	X33	Y33	Z33	X34	Y34	Z34	X35	Y35	Z35	X36	Y36	Z36	X37	Y37	Z37	X38	Y38	Z38	X39	Y39	Z39	X40	Y40	Z40	X41	Y41	Z41	X42	Y42	Z42
																																																																																																																															
33	0.32	-721.47968	1757.05237	-969.46277	-745.34778	1727.38428	-828.24707	-823.65063	1655.71155	-1006.263	-861.03894	1621.99207	-872.47345	-873.50049	1523.18433	-948.52136	-930.61053	1250.43787	-954.4693	-732.31531	1456.60938	-945.13116	-683.08197	1282.36182	-940.23016	-939.35345	1350.23535	-896.58362	-777.46466	1509.01733	-1119.51331	-773.99072	1310.99329	-1208.32715	-767.03595	1168.54712	-1222.5741	-731.42627	1039.88538	-1231.77917	-654.6037	929.23468	-1189.01953	-694.95758	921.3927	-1228.66882	-664.11658	861.16077	-1223.15637	-814.43884	1479.17346	-755.6413	-853.95636	1284.1825	-682.55945	-842.40942	1138.23853	-670.3681	-817.17303	1021.88013	-649.34387	-764.76874	896.54474	-661.67413	-816.43884	892.02588	-638.8277	-779.44788	830.07898	-629.52173	-702.45709	980.96436	-1078.82678	-704.94745	977.14862	-824.06207	-912.6723	1028.89844	-998.87714	-918.80383	1034.89258	-883.4184	-763.01563	675.18512	-1159.81897	-782.1507	491.04361	-1159.24365	-928.89008	377.0018	-1163.39136	-1057.49573	194.42598	-1156.50024	-1089.95508	182.11424	-1098.06995	-976.88062	70.25921	-1209.38196	-762.09192	673.76831	-756.88617	-743.7171	465.24686	-803.17358	-770.46393	277.33005	-806.50531	-770.12488	85.7681	-851.2868	-794.11285	33.52736	-912.71948	-619.13141	35.33516	-816.15143	-850.04614	1790.62329	-899.91785	2845.24683	1034.00208	-3360.3335	NaN	NaN	NaN
34	0.33	-715.42139	1757.95459	-967.31152	-739.07623	1728.7384	-825.96393	-817.53278	1656.36072	-1004.07568	-854.75806	1622.83362	-870.26575	-866.97412	1524.10828	-945.75397	-924.86328	1251.729	-951.15967	-725.93274	1457.35828	-942.86865	-677.14996	1282.88782	-938.13605	-932.57147	1351.60071	-893.10822	-771.79242	1509.65149	-1117.07544	-769.16553	1311.6886	-1205.40527	-762.42322	1169.22266	-1219.95667	-726.70758	1040.60095	-1229.14331	-649.98096	929.95538	-1186.00098	-690.22888	922.00879	-1225.78015	-659.35535	861.74915	-1219.86121	-806.59546	1480.04285	-752.9281	-845.56104	1285.33032	-679.01862	-833.72974	1139.297	-666.56323	-807.26788	1023.15527	-645.62909	-753.08472	898.54791	-658.14648	-805.22009	893.354	-635.20544	-766.75861	832.091	-625.69855	-697.18597	982.1911	-1077.3197	-699.78339	977.51959	-821.80591	-907.28198	1029.99475	-996.39117	-913.47888	1035.78186	-881.11969	-752.75684	676.6662	-1157.427	-768.5249	492.3313	-1156.62646	-914.20245	377.05109	-1160.18604	-1040.75562	193.00394	-1153.36414	-1073.80652	179.74014	-1095.25244	-956.65308	71.60464	-1206.66113	-758.96228	673.68604	-755.69397	-741.84045	464.76331	-802.47852	-769.6571	277.36267	-806.1189	-769.80365	85.73223	-851.43268	-793.25842	32.92022	-913.0589	-619.12659	35.29844	-816.20502	-844.04327	1791.58252	-897.93842	2845.17358	1033.89636	-3360.38916	NaN	NaN	NaN
35	0.34	-709.50891	1758.86523	-965.54822	-733.31104	1729.49475	-824.19885	-811.4259	1656.94714	-1002.00751	-848.86279	1623.6886	-868.04901	-860.78931	1525.10437	-942.95465	-919.07831	1252.86328	-947.98901	-719.57959	1457.99573	-940.64093	-671.27545	1283.45837	-936.10455	-926.20868	1352.59839	-889.64905	-766.18262	1510.34741	-1114.68372	-764.21497	1312.38635	-1203.24646	-757.83582	1169.74683	-1217.74072	-722.11755	1041.12219	-1226.61353	-645.46423	930.64166	-1183.28894	-685.58173	922.56873	-1223.18018	-654.67456	862.35168	-1216.96936	-799.02454	1481.05493	-750.44208	-837.3512	1286.5365	-675.6731	-825.29633	1140.35388	-662.80096	-797.61078	1024.52356	-641.89667	-741.95996	900.55176	-654.79211	-794.04529	894.60419	-631.64935	-754.80768	834.2334	-622.02216	-691.80005	983.48157	-1075.59509	-694.80035	978.04034	-819.57166	-901.8269	1031.03516	-994.25	-908.20569	1036.39087	-879.03937	-742.79089	678.14111	-1155.08875	-755.34216	493.60437	-1153.96301	-899.5697	376.58563	-1157.11414	-1023.49762	190.68871	-1150.32959	-1056.84949	176.34489	-1092.38782	-936.25958	71.60467	-1203.34497	-756.1662	673.58215	-754.63422	-740.65808	464.93655	-801.77386	-768.72321	277.32709	-805.77637	-769.75696	85.78384	-851.46759	-793.74493	33.15332	-913.00507	-619.14099	35.24876	-816.23688	-838.19592	1792.19287	-896.12573	2845.88696	1034.09937	-3357.3772	NaN	NaN	NaN
36	0.35	-703.54236	1759.63721	-963.87054	-727.11414	1730.55029	-822.45685	-805.37213	1657.4408	-999.93433	-842.57123	1624.4176	-865.97198	-854.46088	1526.00732	-940.21948	-913.42023	1254.00684	-944.85907	-713.3515	1458.61755	-938.49542	-665.44037	1283.91492	-934.09662	-919.95856	1354.0835	-886.20587	-760.46295	1510.9845	-1112.37866	-759.36914	1312.89734	-1200.77991	-753.62305	1170.46948	-1215.12793	-717.77588	1041.76355	-1224.19617	-641.07098	931.26318	-1180.89478	-681.23621	923.10803	-1220.71545	-650.0752	862.96985	-1214.4823	-791.62933	1482.1311	-747.90308	-829.64355	1287.85425	-672.3064	-816.28326	1141.63245	-658.96783	-786.99573	1026.10205	-638.48828	-730.78101	902.42737	-651.56305	-782.23895	896.1189	-628.21283	-742.35669	836.36194	-618.52515	-686.29681	984.87598	-1073.54175	-690.00836	978.50073	-817.13507	-896.40454	1032.04736	-992.39319	-903.04291	1036.84546	-877.23175	-733.05945	679.61835	-1152.75305	-742.39069	494.80923	-1151.13269	-884.99158	375.65204	-1154.22693	-1005.63556	187.49251	-1147.26794	-1039.22278	172.49989	-1089.62354	-914.38733	72.04795	-1200.21423	-753.63922	673.46008	-753.66315	-738.73041	464.49658	-801.16693	-767.80298	277.36432	-805.3891	-769.63788	85.85345	-851.52966	-793.74701	33.22518	-913.05115	-619.08069	35.17736	-816.25098	-832.1153	1792.97583	-894.23901	2845.18408	1034.18481	-3360.26245	NaN	NaN	NaN
37	0.36	-697.77441	1760.43848	-962.32758	-720.73297	1731.60583	-820.82477	-799.23285	1657.90454	-997.95538	-836.26605	1625.12878	-863.86353	-848.15375	1526.90918	-937.5672	-907.73035	1255.08435	-941.90204	-707.12476	1459.16541	-936.37122	-659.69177	1284.32996	-932.01447	-913.92609	1355.37988	-882.93341	-754.828	1511.58435	-1109.90674	-754.64423	1313.49951	-1198.42188	-749.30652	1170.90967	-1212.79846	-713.55585	1042.1604	-1221.93848	-636.75732	931.87988	-1178.93909	-677.2066	923.51892	-1218.40857	-645.72699	863.50323	-1212.3988	-784.30133	1483.33289	-745.60938	-820.49585	1288.97498	-668.98004	-807.16681	1142.83191	-655.35779	-776.68158	1027.54907	-635.09619	-719.21008	904.72101	-648.51563	-770.57513	897.70239	-624.71954	-729.86176	838.53717	-615.21814	-680.57556	986.27502	-1071.17676	-685.12689	978.98566	-814.23462	-890.89276	1033.03589	-990.94006	-897.9787	1037.0968	-875.70197	-723.58789	681.08807	-1150.42725	-729.83765	495.96954	-1148.26233	-870.36145	374.2059	-1151.46594	-987.22614	183.55667	-1144.17932	-1020.86334	167.36842	-1086.82935	-892.38617	70.95992	-1196.40942	-751.55353	673.36603	-752.72668	-737.32336	464.58011	-800.31573	-766.97534	277.38474	-805.07446	-769.37659	85.96952	-851.55676	-793.33923	33.08061	-913.21008	-619.00745	35.09494	-816.21497	-826.15723	1793.6283	-892.55261	2845.16431	1034.1698	-3360.24854	NaN	NaN	NaN
38	0.37	-691.5603	1760.99634	-960.62811	-714.67462	1732.56409	-819.07764	-793.16754	1658.33032	-996.02789	-829.64093	1625.7218	-861.82782	-841.7171	1527.65698	-935.11749	-902.14343	1256.11401	-939.09296	-700.94507	1459.69299	-934.33215	-654.04926	1284.70288	-929.92126	-907.79474	1356.56042	-879.76202	-749.21692	1511.9884	-1107.6897	-749.9035	1314.00513	-1196.17297	-745.13861	1171.52649	-1210.65234	-709.53296	1042.61157	-1219.96912	-633.10956	932.31812	-1176.69482	-673.28845	923.88153	-1216.49292	-641.599	864.08978	-1210.65845	-776.82581	1484.28992	-743.32104	-811.93097	1290.17712	-665.74774	-798.23962	1144.1189	-651.66992	-766.56671	1028.86646	-631.83417	-707.74969	906.84485	-645.64984	-758.82654	899.27679	-621.43677	-717.35986	840.63824	-612.03265	-674.63538	987.8844	-1068.48132	-680.03174	979.83148	-811.40936	-885.31793	1033.93127	-989.65509	-893.01672	1037.29224	-874.42987	-714.3252	682.54797	-1148.14478	-717.57751	496.98969	-1145.33411	-855.67639	372.18741	-1148.77734	-968.27112	178.87273	-1141.10083	-1002.07306	162.05136	-1084.06641	-869.73572	69.34064	-1192.42908	-749.2049	673.10284	-751.96246	-735.74054	464.42319	-799.784	-766.27087	277.3743	-804.84558	-769.34741	85.94079	-851.6853	-793.70593	33.34661	-913.13507	-618.96295	35.00132	-816.16003	-820.11896	1794.22144	-890.91693	2846.01685	1034.20667	-3357.43042	NaN	NaN	NaN
